<mxfile host="app.diagrams.net" modified="2024-05-01T12:56:31.080Z" agent="Mozilla/5.0 (Windows NT 10.0; Win64; x64) AppleWebKit/537.36 (KHTML, like Gecko) Chrome/122.0.0.0 YaBrowser/24.4.0.0 Safari/537.36" etag="ugUFel3bKe-EhnakBIf5" version="24.3.1" type="github">
  <diagram name="Страница — 1" id="52q1qeUz_SIhHIIovMeT">
    <mxGraphModel dx="1072" dy="588" grid="1" gridSize="10" guides="1" tooltips="1" connect="1" arrows="1" fold="1" page="1" pageScale="1" pageWidth="827" pageHeight="1169" math="0" shadow="0">
      <root>
        <mxCell id="0" />
        <mxCell id="1" parent="0" />
        <mxCell id="eDm1u7pfxWVx2RCrsEuu-1" value="Локальная сеть" style="swimlane;fontStyle=1;align=center;verticalAlign=top;childLayout=stackLayout;horizontal=1;startSize=26;horizontalStack=0;resizeParent=1;resizeParentMax=0;resizeLast=0;collapsible=1;marginBottom=0;whiteSpace=wrap;html=1;" vertex="1" parent="1">
          <mxGeometry x="340" y="160" width="190" height="86" as="geometry" />
        </mxCell>
        <mxCell id="eDm1u7pfxWVx2RCrsEuu-20" value="+ IP" style="text;strokeColor=none;fillColor=none;align=left;verticalAlign=top;spacingLeft=4;spacingRight=4;overflow=hidden;rotatable=0;points=[[0,0.5],[1,0.5]];portConstraint=eastwest;whiteSpace=wrap;html=1;" vertex="1" parent="eDm1u7pfxWVx2RCrsEuu-1">
          <mxGeometry y="26" width="190" height="26" as="geometry" />
        </mxCell>
        <mxCell id="eDm1u7pfxWVx2RCrsEuu-3" value="" style="line;strokeWidth=1;fillColor=none;align=left;verticalAlign=middle;spacingTop=-1;spacingLeft=3;spacingRight=3;rotatable=0;labelPosition=right;points=[];portConstraint=eastwest;strokeColor=inherit;" vertex="1" parent="eDm1u7pfxWVx2RCrsEuu-1">
          <mxGeometry y="52" width="190" height="8" as="geometry" />
        </mxCell>
        <mxCell id="eDm1u7pfxWVx2RCrsEuu-4" value="+ Передача данных по сети()" style="text;strokeColor=none;fillColor=none;align=left;verticalAlign=top;spacingLeft=4;spacingRight=4;overflow=hidden;rotatable=0;points=[[0,0.5],[1,0.5]];portConstraint=eastwest;whiteSpace=wrap;html=1;" vertex="1" parent="eDm1u7pfxWVx2RCrsEuu-1">
          <mxGeometry y="60" width="190" height="26" as="geometry" />
        </mxCell>
        <mxCell id="eDm1u7pfxWVx2RCrsEuu-5" value="Рабочая станция" style="swimlane;fontStyle=1;align=center;verticalAlign=top;childLayout=stackLayout;horizontal=1;startSize=26;horizontalStack=0;resizeParent=1;resizeParentMax=0;resizeLast=0;collapsible=1;marginBottom=0;whiteSpace=wrap;html=1;" vertex="1" parent="1">
          <mxGeometry x="90" y="280" width="200" height="170" as="geometry" />
        </mxCell>
        <mxCell id="eDm1u7pfxWVx2RCrsEuu-6" value="+ ОЗУ: 4 ГБ&lt;div&gt;+ ПЗУ: 40ГБ&lt;/div&gt;&lt;div&gt;+ ОС: Window, Linux&lt;/div&gt;" style="text;strokeColor=none;fillColor=none;align=left;verticalAlign=top;spacingLeft=4;spacingRight=4;overflow=hidden;rotatable=0;points=[[0,0.5],[1,0.5]];portConstraint=eastwest;whiteSpace=wrap;html=1;" vertex="1" parent="eDm1u7pfxWVx2RCrsEuu-5">
          <mxGeometry y="26" width="200" height="64" as="geometry" />
        </mxCell>
        <mxCell id="eDm1u7pfxWVx2RCrsEuu-7" value="" style="line;strokeWidth=1;fillColor=none;align=left;verticalAlign=middle;spacingTop=-1;spacingLeft=3;spacingRight=3;rotatable=0;labelPosition=right;points=[];portConstraint=eastwest;strokeColor=inherit;" vertex="1" parent="eDm1u7pfxWVx2RCrsEuu-5">
          <mxGeometry y="90" width="200" height="8" as="geometry" />
        </mxCell>
        <mxCell id="eDm1u7pfxWVx2RCrsEuu-8" value="+ Доступ к приложению АИС через веб браузер()&lt;div&gt;+ Вывод данных от АИС()&lt;/div&gt;&lt;div&gt;+ Ввод данных в АИС()&lt;/div&gt;" style="text;strokeColor=none;fillColor=none;align=left;verticalAlign=top;spacingLeft=4;spacingRight=4;overflow=hidden;rotatable=0;points=[[0,0.5],[1,0.5]];portConstraint=eastwest;whiteSpace=wrap;html=1;" vertex="1" parent="eDm1u7pfxWVx2RCrsEuu-5">
          <mxGeometry y="98" width="200" height="72" as="geometry" />
        </mxCell>
        <mxCell id="eDm1u7pfxWVx2RCrsEuu-11" value="Сервер приложения" style="swimlane;fontStyle=1;align=center;verticalAlign=top;childLayout=stackLayout;horizontal=1;startSize=26;horizontalStack=0;resizeParent=1;resizeParentMax=0;resizeLast=0;collapsible=1;marginBottom=0;whiteSpace=wrap;html=1;" vertex="1" parent="1">
          <mxGeometry x="560" y="290" width="160" height="86" as="geometry" />
        </mxCell>
        <mxCell id="eDm1u7pfxWVx2RCrsEuu-12" value="+ field: type" style="text;strokeColor=none;fillColor=none;align=left;verticalAlign=top;spacingLeft=4;spacingRight=4;overflow=hidden;rotatable=0;points=[[0,0.5],[1,0.5]];portConstraint=eastwest;whiteSpace=wrap;html=1;" vertex="1" parent="eDm1u7pfxWVx2RCrsEuu-11">
          <mxGeometry y="26" width="160" height="26" as="geometry" />
        </mxCell>
        <mxCell id="eDm1u7pfxWVx2RCrsEuu-13" value="" style="line;strokeWidth=1;fillColor=none;align=left;verticalAlign=middle;spacingTop=-1;spacingLeft=3;spacingRight=3;rotatable=0;labelPosition=right;points=[];portConstraint=eastwest;strokeColor=inherit;" vertex="1" parent="eDm1u7pfxWVx2RCrsEuu-11">
          <mxGeometry y="52" width="160" height="8" as="geometry" />
        </mxCell>
        <mxCell id="eDm1u7pfxWVx2RCrsEuu-14" value="+ method(type): type" style="text;strokeColor=none;fillColor=none;align=left;verticalAlign=top;spacingLeft=4;spacingRight=4;overflow=hidden;rotatable=0;points=[[0,0.5],[1,0.5]];portConstraint=eastwest;whiteSpace=wrap;html=1;" vertex="1" parent="eDm1u7pfxWVx2RCrsEuu-11">
          <mxGeometry y="60" width="160" height="26" as="geometry" />
        </mxCell>
        <mxCell id="eDm1u7pfxWVx2RCrsEuu-15" value="Сервер БД" style="swimlane;fontStyle=1;align=center;verticalAlign=top;childLayout=stackLayout;horizontal=1;startSize=26;horizontalStack=0;resizeParent=1;resizeParentMax=0;resizeLast=0;collapsible=1;marginBottom=0;whiteSpace=wrap;html=1;" vertex="1" parent="1">
          <mxGeometry x="827" y="271" width="160" height="124" as="geometry" />
        </mxCell>
        <mxCell id="eDm1u7pfxWVx2RCrsEuu-16" value="+ ОС: Ubuntu 22.04&lt;div&gt;+ СУБД: PostgreSQL&lt;/div&gt;&lt;div&gt;+&amp;nbsp;&lt;br&gt;&lt;div&gt;&lt;br&gt;&lt;/div&gt;&lt;/div&gt;" style="text;strokeColor=none;fillColor=none;align=left;verticalAlign=top;spacingLeft=4;spacingRight=4;overflow=hidden;rotatable=0;points=[[0,0.5],[1,0.5]];portConstraint=eastwest;whiteSpace=wrap;html=1;" vertex="1" parent="eDm1u7pfxWVx2RCrsEuu-15">
          <mxGeometry y="26" width="160" height="64" as="geometry" />
        </mxCell>
        <mxCell id="eDm1u7pfxWVx2RCrsEuu-17" value="" style="line;strokeWidth=1;fillColor=none;align=left;verticalAlign=middle;spacingTop=-1;spacingLeft=3;spacingRight=3;rotatable=0;labelPosition=right;points=[];portConstraint=eastwest;strokeColor=inherit;" vertex="1" parent="eDm1u7pfxWVx2RCrsEuu-15">
          <mxGeometry y="90" width="160" height="8" as="geometry" />
        </mxCell>
        <mxCell id="eDm1u7pfxWVx2RCrsEuu-18" value="+ method(type): type" style="text;strokeColor=none;fillColor=none;align=left;verticalAlign=top;spacingLeft=4;spacingRight=4;overflow=hidden;rotatable=0;points=[[0,0.5],[1,0.5]];portConstraint=eastwest;whiteSpace=wrap;html=1;" vertex="1" parent="eDm1u7pfxWVx2RCrsEuu-15">
          <mxGeometry y="98" width="160" height="26" as="geometry" />
        </mxCell>
        <mxCell id="eDm1u7pfxWVx2RCrsEuu-22" value="" style="endArrow=box;endFill=0;endSize=12;html=1;rounded=0;exitX=0;exitY=0.5;exitDx=0;exitDy=0;" edge="1" parent="1">
          <mxGeometry width="160" relative="1" as="geometry">
            <mxPoint x="340" y="198.9999999999999" as="sourcePoint" />
            <mxPoint x="190" y="280" as="targetPoint" />
            <Array as="points">
              <mxPoint x="190" y="199" />
            </Array>
          </mxGeometry>
        </mxCell>
        <mxCell id="eDm1u7pfxWVx2RCrsEuu-23" value="" style="endArrow=box;endFill=0;endSize=12;html=1;rounded=0;exitX=1;exitY=0.5;exitDx=0;exitDy=0;entryX=0.5;entryY=0;entryDx=0;entryDy=0;" edge="1" parent="1" source="eDm1u7pfxWVx2RCrsEuu-20" target="eDm1u7pfxWVx2RCrsEuu-11">
          <mxGeometry width="160" relative="1" as="geometry">
            <mxPoint x="760" y="179.9999999999999" as="sourcePoint" />
            <mxPoint x="610" y="261" as="targetPoint" />
            <Array as="points">
              <mxPoint x="640" y="199" />
            </Array>
          </mxGeometry>
        </mxCell>
        <mxCell id="eDm1u7pfxWVx2RCrsEuu-24" value="" style="endArrow=box;endFill=0;endSize=12;html=1;rounded=0;exitX=1;exitY=0.5;exitDx=0;exitDy=0;entryX=0;entryY=0.5;entryDx=0;entryDy=0;" edge="1" parent="1" source="eDm1u7pfxWVx2RCrsEuu-12" target="eDm1u7pfxWVx2RCrsEuu-16">
          <mxGeometry width="160" relative="1" as="geometry">
            <mxPoint x="680" y="209" as="sourcePoint" />
            <mxPoint x="810" y="300" as="targetPoint" />
            <Array as="points">
              <mxPoint x="790" y="329" />
            </Array>
          </mxGeometry>
        </mxCell>
      </root>
    </mxGraphModel>
  </diagram>
</mxfile>
